<svg xmlns="http://www.w3.org/2000/svg" viewBox="0 0 35.91 39.54"><defs><style>.cls-1{fill:#333;opacity:0.3;}.cls-2{fill:#e3d377;}.cls-3{fill:#f7ff9a;}.cls-4{fill:#696970;}.cls-5{fill:#fff;}.cls-6,.cls-7{fill:none;stroke-linecap:round;stroke-linejoin:round;stroke-width:2px;}.cls-6{stroke:#454059;}.cls-7{stroke:#696970;}</style></defs><title>1Asset 10</title><g id="Layer_2" data-name="Layer 2"><g id="Layer_1-2" data-name="Layer 1"><path class="cls-1" d="M35.9,30.18a2.78,2.78,0,0,0-2.8-2.59c-.63,0-1.27,0-1.82.05.07-.21.15-.42.22-.64a15.87,15.87,0,1,0-13.63,7.75H18v1.45A2.77,2.77,0,0,0,20.76,39h.72a2.64,2.64,0,0,0,1.31-.35,1.19,1.19,0,0,0,.16.08c.27.08,1.65.49,2.22.58a28,28,0,0,0,4.19.27,24.74,24.74,0,0,0,3.92-.27,3.23,3.23,0,0,0,2.63-3.48Z"/><circle class="cls-2" cx="15.87" cy="15.88" r="15.87"/><circle class="cls-3" cx="15.87" cy="15.88" r="13.22"/><path class="cls-4" d="M16,8.13A.9.9,0,0,1,17,9v.24a7.46,7.46,0,0,1,2.54.84,1.18,1.18,0,0,1,.63,1.05,1.16,1.16,0,0,1-1.19,1.17,1.27,1.27,0,0,1-.62-.16,6.7,6.7,0,0,0-1.45-.59v2.66c2.66.71,3.8,1.8,3.8,3.76S19.15,21.22,17,21.47v.93a.91.91,0,0,1-1.82,0v-.95a8.75,8.75,0,0,1-3.44-1.22A1.2,1.2,0,0,1,12.3,18a1.26,1.26,0,0,1,.68.23,6.93,6.93,0,0,0,2.24,1V16.42c-2.52-.69-3.76-1.65-3.76-3.73,0-1.92,1.47-3.22,3.67-3.44V9A.9.9,0,0,1,16,8.13Zm-.82,5.66V11.43c-.84.12-1.21.54-1.21,1.11S14.26,13.44,15.22,13.79Zm1.64,3.06v2.43c.82-.12,1.24-.5,1.24-1.13S17.81,17.19,16.86,16.85Z"/><path class="cls-5" d="M24.72,22.53a14.69,14.69,0,0,1-3.48,3.18v9s1.55.47,2.09.56a30.62,30.62,0,0,0,7.77,0,2.23,2.23,0,0,0,1.81-2.5V27.26a1.82,1.82,0,0,0-1.81-1.67c-1.67,0-3.4.14-3.4.14s2.33-4.45.46-5.33c-1.71-.79-2.44.82-3.44,2.13"/><path class="cls-6" d="M24.72,22.53a14.69,14.69,0,0,1-3.48,3.18v9s1.55.47,2.09.56a30.62,30.62,0,0,0,7.77,0,2.23,2.23,0,0,0,1.81-2.5V27.26a1.82,1.82,0,0,0-1.81-1.67c-1.67,0-3.4.14-3.4.14s2.33-4.45.46-5.33C26.45,19.61,25.72,21.22,24.72,22.53Z"/><path class="cls-5" d="M18.76,25.3h.71a1.77,1.77,0,0,1,1.77,1.77v6.13A1.76,1.76,0,0,1,19.48,35h-.72A1.77,1.77,0,0,1,17,33.19V27.07a1.77,1.77,0,0,1,1.77-1.77Z"/><path class="cls-6" d="M18.76,25.3h.71a1.77,1.77,0,0,1,1.77,1.77v6.13A1.76,1.76,0,0,1,19.48,35h-.72A1.77,1.77,0,0,1,17,33.19V27.07a1.77,1.77,0,0,1,1.77-1.77Z"/><rect class="cls-3" x="5.86" y="13.31" width="19.82" height="4.19" transform="translate(-4.53 6.79) rotate(-21.34)"/><line class="cls-7" x1="23.38" y1="12.35" x2="8.4" y2="18.47"/></g></g></svg>